<svg width="352" height="100" viewBox="0 0 352 100" fill="none" xmlns="http://www.w3.org/2000/svg">
<path d="M-1.33562e-05 76.3888L0 0L100 1.74846e-05L100 76.3888L50 99.9999L-1.33562e-05 76.3888Z" fill="#DF6BFF"/>
<path d="M100 11.1113H99.999V76.3887L88.8877 70.833V11.1113H11.1113L0 0H100V11.1113Z" fill="#C400F5"/>
<path d="M50 88.8884L100 65.2773V76.3884L50 99.9995V88.8884Z" fill="#9500BC"/>
<path d="M36.1089 32.1052L50.3633 25V54.9999H36.1089V32.1052Z" fill="#333333"/>
<path d="M64.2534 32.1052L49.999 25V54.9999H64.2534V32.1052Z" fill="#333333"/>
<path d="M42.3242 70.7895L42.3242 66.1111L49.9997 66.1111L49.9997 75L42.3242 70.7895Z" fill="#333333"/>
<path d="M57.6758 70.7895L57.6758 66.1111L50.0003 66.1111L50.0003 75L57.6758 70.7895Z" fill="#333333"/>
<rect width="20.8333" height="7.77776" transform="matrix(-1 0 0 1 49.999 55)" fill="#333333"/>
<rect x="49.999" y="55" width="20.8333" height="7.77776" fill="#333333"/>
<path d="M340.581 88.1862C337.974 88.1862 335.689 87.6736 333.727 86.6483C331.793 85.5938 330.285 84.1584 329.201 82.3423C328.146 80.5261 327.619 78.461 327.619 76.1468C327.619 73.8034 328.132 71.7382 329.157 69.9514C330.212 68.1352 331.647 66.7145 333.463 65.6892C335.309 64.664 337.403 64.1514 339.746 64.1514C342.031 64.1514 344.067 64.6493 345.854 65.6453C347.641 66.6413 349.047 68.0473 350.072 69.8635C351.097 71.6797 351.61 73.818 351.61 76.2786C351.61 76.513 351.595 76.7766 351.566 77.0696C351.566 77.3625 351.551 77.6408 351.522 77.9044H331.969V74.2574H348.622L346.469 75.3999C346.498 74.0524 346.22 72.866 345.634 71.8408C345.048 70.8155 344.243 70.01 343.218 69.4241C342.222 68.8382 341.065 68.5453 339.746 68.5453C338.399 68.5453 337.213 68.8382 336.187 69.4241C335.191 70.01 334.4 70.8302 333.815 71.8847C333.258 72.91 332.98 74.1256 332.98 75.5317V76.4105C332.98 77.8165 333.302 79.0615 333.946 80.1453C334.591 81.2291 335.499 82.064 336.671 82.6499C337.842 83.2357 339.19 83.5286 340.713 83.5286C342.031 83.5286 343.218 83.3236 344.272 82.9135C345.327 82.5034 346.264 81.8589 347.084 80.9802L350.028 84.3635C348.974 85.5938 347.641 86.5458 346.03 87.2195C344.448 87.864 342.632 88.1862 340.581 88.1862Z" fill="#9500BC"/>
<path d="M316.851 87.8792V64.4156H322.344V87.8792H316.851ZM319.62 60.5489C318.594 60.5489 317.745 60.2267 317.071 59.5822C316.427 58.9378 316.104 58.1615 316.104 57.2535C316.104 56.3161 316.427 55.5398 317.071 54.9247C317.745 54.2802 318.594 53.958 319.62 53.958C320.645 53.958 321.48 54.2656 322.124 54.8807C322.798 55.4666 323.135 56.2136 323.135 57.1216C323.135 58.0883 322.813 58.9085 322.168 59.5822C321.524 60.2267 320.674 60.5489 319.62 60.5489Z" fill="#9500BC"/>
<path d="M307.061 88.1865C304.483 88.1865 302.491 87.5274 301.085 86.2093C299.679 84.8618 298.976 82.8845 298.976 80.2774V59.2305H304.468V80.1456C304.468 81.2588 304.747 82.1229 305.303 82.738C305.889 83.3532 306.695 83.6608 307.72 83.6608C308.95 83.6608 309.976 83.3386 310.796 82.6941L312.334 86.6047C311.689 87.132 310.898 87.5274 309.961 87.7911C309.024 88.0547 308.057 88.1865 307.061 88.1865ZM295.109 68.8093V64.4153H310.752V68.8093H295.109Z" fill="#9500BC"/>
<path d="M285.996 87.8786V83.1332L285.688 82.1226V73.818C285.688 72.2069 285.205 70.962 284.238 70.0832C283.272 69.1751 281.807 68.7211 279.844 68.7211C278.526 68.7211 277.223 68.9261 275.934 69.3362C274.674 69.7463 273.605 70.3175 272.726 71.0498L270.573 67.0514C271.833 66.0847 273.327 65.367 275.055 64.8983C276.813 64.4004 278.629 64.1514 280.503 64.1514C283.901 64.1514 286.523 64.9716 288.369 66.612C290.243 68.2231 291.181 70.7276 291.181 74.1256V87.8786H285.996ZM278.614 88.1862C276.856 88.1862 275.319 87.8933 274 87.3074C272.682 86.6923 271.657 85.8574 270.925 84.8029C270.222 83.719 269.87 82.5034 269.87 81.1559C269.87 79.8377 270.178 78.6514 270.793 77.5968C271.437 76.5423 272.477 75.7074 273.913 75.0923C275.348 74.4771 277.252 74.1695 279.625 74.1695H286.435V77.8165H280.02C278.145 77.8165 276.886 78.1241 276.241 78.7392C275.597 79.3251 275.275 80.0574 275.275 80.9362C275.275 81.9322 275.67 82.7231 276.461 83.3089C277.252 83.8948 278.35 84.1877 279.756 84.1877C281.104 84.1877 282.305 83.8802 283.36 83.265C284.443 82.6498 285.22 81.7418 285.688 80.5408L286.611 83.8362C286.084 85.213 285.132 86.2822 283.755 87.0438C282.407 87.8054 280.694 88.1862 278.614 88.1862Z" fill="#9500BC"/>
<path d="M256.773 88.1862C254.312 88.1862 252.115 87.6736 250.182 86.6483C248.278 85.5938 246.784 84.1584 245.7 82.3423C244.616 80.5261 244.074 78.461 244.074 76.1468C244.074 73.8034 244.616 71.7382 245.7 69.9514C246.784 68.1352 248.278 66.7145 250.182 65.6892C252.115 64.664 254.312 64.1514 256.773 64.1514C259.058 64.1514 261.064 64.6201 262.792 65.5574C264.55 66.4655 265.883 67.813 266.791 69.5999L262.573 72.0605C261.87 70.9473 261.006 70.1271 259.98 69.5999C258.984 69.0726 257.9 68.8089 256.729 68.8089C255.381 68.8089 254.166 69.1019 253.082 69.6877C251.998 70.2736 251.148 71.1231 250.533 72.2362C249.918 73.3201 249.611 74.6236 249.611 76.1468C249.611 77.6701 249.918 78.9882 250.533 80.1014C251.148 81.1852 251.998 82.0201 253.082 82.6059C254.166 83.1918 255.381 83.4847 256.729 83.4847C257.9 83.4847 258.984 83.2211 259.98 82.6938C261.006 82.1665 261.87 81.3463 262.573 80.2332L266.791 82.6938C265.883 84.4514 264.55 85.8135 262.792 86.7802C261.064 87.7175 259.058 88.1862 256.773 88.1862Z" fill="#9500BC"/>
<path d="M217.749 87.8792V63.0974C217.749 60.6368 218.466 58.6742 219.902 57.2095C221.366 55.7156 223.446 54.9686 226.141 54.9686C227.108 54.9686 228.016 55.0711 228.865 55.2762C229.744 55.4812 230.476 55.8035 231.062 56.2429L229.568 60.3732C229.158 60.0509 228.689 59.8166 228.162 59.6701C227.635 59.4944 227.093 59.4065 226.536 59.4065C225.394 59.4065 224.53 59.7287 223.944 60.3732C223.358 60.9883 223.065 61.9257 223.065 63.1853V65.8216L223.241 68.2822V87.8792H217.749ZM213.882 68.9853V64.5913H229.524V68.9853H213.882ZM233.303 87.8792V64.4156H238.795V87.8792H233.303ZM236.027 60.5489C235.002 60.5489 234.153 60.2267 233.479 59.5822C232.834 58.9378 232.512 58.1615 232.512 57.2535C232.512 56.3161 232.834 55.5398 233.479 54.9247C234.153 54.2802 235.002 53.958 236.027 53.958C237.053 53.958 237.887 54.2656 238.532 54.8807C239.206 55.4666 239.542 56.2136 239.542 57.1216C239.542 58.0883 239.22 58.9085 238.576 59.5822C237.931 60.2267 237.082 60.5489 236.027 60.5489Z" fill="#9500BC"/>
<path d="M204.3 87.8792V64.4156H209.792V87.8792H204.3ZM207.068 60.5489C206.043 60.5489 205.193 60.2267 204.519 59.5822C203.875 58.9378 203.553 58.1615 203.553 57.2535C203.553 56.3161 203.875 55.5398 204.519 54.9247C205.193 54.2802 206.043 53.958 207.068 53.958C208.093 53.958 208.928 54.2656 209.572 54.8807C210.246 55.4666 210.583 56.2136 210.583 57.1216C210.583 58.0883 210.261 58.9085 209.616 59.5822C208.972 60.2267 208.122 60.5489 207.068 60.5489Z" fill="#9500BC"/>
<path d="M194.509 88.1865C191.931 88.1865 189.939 87.5274 188.533 86.2093C187.127 84.8618 186.424 82.8845 186.424 80.2774V59.2305H191.917V80.1456C191.917 81.2588 192.195 82.1229 192.752 82.738C193.337 83.3532 194.143 83.6608 195.168 83.6608C196.399 83.6608 197.424 83.3386 198.244 82.6941L199.782 86.6047C199.137 87.132 198.347 87.5274 197.409 87.7911C196.472 88.0547 195.505 88.1865 194.509 88.1865ZM182.558 68.8093V64.4153H198.2V68.8093H182.558Z" fill="#9500BC"/>
<path d="M167.902 88.1862C165.5 88.1862 163.361 87.6736 161.486 86.6483C159.612 85.5938 158.132 84.1584 157.049 82.3423C155.965 80.5261 155.423 78.461 155.423 76.1468C155.423 73.8034 155.965 71.7382 157.049 69.9514C158.132 68.1352 159.612 66.7145 161.486 65.6892C163.361 64.664 165.5 64.1514 167.902 64.1514C170.333 64.1514 172.486 64.664 174.361 65.6892C176.265 66.7145 177.744 68.1206 178.799 69.9074C179.882 71.6943 180.424 73.7741 180.424 76.1468C180.424 78.461 179.882 80.5261 178.799 82.3423C177.744 84.1584 176.265 85.5938 174.361 86.6483C172.486 87.6736 170.333 88.1862 167.902 88.1862ZM167.902 83.4847C169.249 83.4847 170.45 83.1918 171.505 82.6059C172.559 82.0201 173.379 81.1706 173.965 80.0574C174.58 78.9443 174.888 77.6408 174.888 76.1468C174.888 74.6236 174.58 73.3201 173.965 72.2362C173.379 71.1231 172.559 70.2736 171.505 69.6877C170.45 69.1019 169.264 68.8089 167.946 68.8089C166.598 68.8089 165.397 69.1019 164.343 69.6877C163.317 70.2736 162.497 71.1231 161.882 72.2362C161.267 73.3201 160.959 74.6236 160.959 76.1468C160.959 77.6408 161.267 78.9443 161.882 80.0574C162.497 81.1706 163.317 82.0201 164.343 82.6059C165.397 83.1918 166.583 83.4847 167.902 83.4847Z" fill="#9500BC"/>
<path d="M122.312 87.8787V57.1211H127.013L146.302 80.8044H143.974V57.1211H149.642V87.8787H144.94L125.651 64.1953H127.98V87.8787H122.312Z" fill="#9500BC"/>
<path d="M192.342 39.3949V21.7282H195.408V26.4949L194.908 25.2282C195.486 24.0726 196.375 23.1726 197.575 22.5282C198.775 21.8837 200.175 21.5615 201.775 21.5615C203.22 21.5615 204.486 21.8393 205.575 22.3949C206.686 22.9504 207.553 23.7949 208.175 24.9282C208.797 26.0615 209.108 27.4949 209.108 29.2282V39.3949H205.908V29.5949C205.908 27.8837 205.486 26.5949 204.642 25.7282C203.82 24.8615 202.653 24.4282 201.142 24.4282C200.008 24.4282 199.02 24.6504 198.175 25.0949C197.331 25.5393 196.675 26.1949 196.208 27.0615C195.764 27.9282 195.542 29.006 195.542 30.2949V39.3949H192.342Z" fill="#333333"/>
<path d="M179.798 39.5949C177.909 39.5949 176.242 39.206 174.798 38.4282C173.376 37.6504 172.265 36.5837 171.465 35.2282C170.687 33.8726 170.298 32.3171 170.298 30.5615C170.298 28.806 170.676 27.2504 171.431 25.8949C172.209 24.5393 173.265 23.4837 174.598 22.7282C175.953 21.9504 177.476 21.5615 179.165 21.5615C180.876 21.5615 182.387 21.9393 183.698 22.6949C185.009 23.4504 186.031 24.5171 186.765 25.8949C187.52 27.2504 187.898 28.8393 187.898 30.6615C187.898 30.7949 187.887 30.9504 187.865 31.1282C187.865 31.306 187.853 31.4726 187.831 31.6282H172.798V29.3282H186.165L184.865 30.1282C184.887 28.9949 184.653 27.9837 184.165 27.0949C183.676 26.206 182.998 25.5171 182.131 25.0282C181.287 24.5171 180.298 24.2615 179.165 24.2615C178.053 24.2615 177.065 24.5171 176.198 25.0282C175.331 25.5171 174.653 26.2171 174.165 27.1282C173.676 28.0171 173.431 29.0393 173.431 30.1949V30.7282C173.431 31.906 173.698 32.9615 174.231 33.8949C174.787 34.806 175.553 35.5171 176.531 36.0282C177.509 36.5393 178.631 36.7949 179.898 36.7949C180.942 36.7949 181.887 36.6171 182.731 36.2615C183.598 35.906 184.353 35.3726 184.998 34.6615L186.765 36.7282C185.965 37.6615 184.965 38.3726 183.765 38.8615C182.587 39.3504 181.265 39.5949 179.798 39.5949Z" fill="#333333"/>
<path d="M158.577 39.5949C157.11 39.5949 155.766 39.2615 154.543 38.5949C153.343 37.906 152.377 36.8949 151.643 35.5615C150.932 34.2282 150.577 32.5615 150.577 30.5615C150.577 28.5615 150.921 26.8949 151.61 25.5615C152.321 24.2282 153.277 23.2282 154.477 22.5615C155.699 21.8949 157.066 21.5615 158.577 21.5615C160.31 21.5615 161.843 21.9393 163.177 22.6949C164.51 23.4504 165.566 24.506 166.343 25.8615C167.121 27.1949 167.51 28.7615 167.51 30.5615C167.51 32.3615 167.121 33.9393 166.343 35.2949C165.566 36.6504 164.51 37.706 163.177 38.4615C161.843 39.2171 160.31 39.5949 158.577 39.5949ZM149.21 45.8615V21.7282H152.277V26.4949L152.077 30.5949L152.41 34.6949V45.8615H149.21ZM158.31 36.7949C159.443 36.7949 160.454 36.5393 161.343 36.0282C162.254 35.5171 162.966 34.7949 163.477 33.8615C164.01 32.906 164.277 31.806 164.277 30.5615C164.277 29.2949 164.01 28.206 163.477 27.2949C162.966 26.3615 162.254 25.6393 161.343 25.1282C160.454 24.6171 159.443 24.3615 158.31 24.3615C157.199 24.3615 156.188 24.6171 155.277 25.1282C154.388 25.6393 153.677 26.3615 153.143 27.2949C152.632 28.206 152.377 29.2949 152.377 30.5615C152.377 31.806 152.632 32.906 153.143 33.8615C153.677 34.7949 154.388 35.5171 155.277 36.0282C156.188 36.5393 157.199 36.7949 158.31 36.7949Z" fill="#333333"/>
<path d="M132.215 39.6606C130.437 39.6606 128.781 39.3606 127.248 38.7606C125.737 38.1606 124.426 37.3273 123.315 36.2606C122.203 35.1717 121.337 33.9051 120.715 32.4606C120.092 31.0162 119.781 29.4384 119.781 27.7273C119.781 26.0162 120.092 24.4384 120.715 22.9939C121.337 21.5495 122.203 20.2939 123.315 19.2273C124.426 18.1384 125.737 17.2939 127.248 16.6939C128.759 16.0939 130.415 15.7939 132.215 15.7939C133.992 15.7939 135.626 16.0939 137.115 16.6939C138.626 17.2717 139.937 18.1051 141.048 19.1939C142.181 20.2606 143.048 21.5162 143.648 22.9606C144.27 24.4051 144.581 25.9939 144.581 27.7273C144.581 29.4606 144.27 31.0495 143.648 32.4939C143.048 33.9384 142.181 35.2051 141.048 36.2939C139.937 37.3606 138.626 38.1939 137.115 38.7939C135.626 39.3717 133.992 39.6606 132.215 39.6606ZM132.215 36.6939C133.503 36.6939 134.692 36.4717 135.781 36.0273C136.892 35.5828 137.848 34.9606 138.648 34.1606C139.47 33.3384 140.103 32.3828 140.548 31.2939C141.015 30.2051 141.248 29.0162 141.248 27.7273C141.248 26.4384 141.015 25.2495 140.548 24.1606C140.103 23.0717 139.47 22.1273 138.648 21.3273C137.848 20.5051 136.892 19.8717 135.781 19.4273C134.692 18.9828 133.503 18.7606 132.215 18.7606C130.903 18.7606 129.692 18.9828 128.581 19.4273C127.492 19.8717 126.537 20.5051 125.715 21.3273C124.892 22.1273 124.248 23.0717 123.781 24.1606C123.337 25.2495 123.115 26.4384 123.115 27.7273C123.115 29.0162 123.337 30.2051 123.781 31.2939C124.248 32.3828 124.892 33.3384 125.715 34.1606C126.537 34.9606 127.492 35.5828 128.581 36.0273C129.692 36.4717 130.903 36.6939 132.215 36.6939Z" fill="#333333"/>
</svg>
