<svg width="100" height="100" viewBox="0 0 100 100" fill="none" xmlns="http://www.w3.org/2000/svg">
<path d="M-1.33563e-05 76.3889L0 0L100 1.74846e-05L100 76.3889L50 99.9999L-1.33563e-05 76.3889Z" fill="#DF6BFF"/>
<path d="M100 0V76.3887L88.8887 70.833V11.1113H11.1113L0 0H100Z" fill="#C400F5"/>
<path d="M50 88.8884L100 65.2773V76.3884L50 99.9995V88.8884Z" fill="#9500BC"/>
<path d="M36.1099 32.1052L50.3643 25V54.9999H36.1099V32.1052Z" fill="#333333"/>
<path d="M64.2534 32.1052L49.999 25V54.9999H64.2534V32.1052Z" fill="#333333"/>
<path d="M42.3242 70.7895L42.3242 66.1111L49.9997 66.1111L49.9997 75L42.3242 70.7895Z" fill="#333333"/>
<path d="M57.6748 70.7895L57.6748 66.1111L49.9994 66.1111L49.9994 75L57.6748 70.7895Z" fill="#333333"/>
<rect width="20.8333" height="7.77776" transform="matrix(-1 0 0 1 49.999 54.999)" fill="#333333"/>
<rect x="49.999" y="54.999" width="20.8333" height="7.77776" fill="#333333"/>
</svg>
